<?xml version="1.0" standalone="no"?>
<!DOCTYPE svg PUBLIC "-//W3C//DTD SVG 20010904//EN"
 "http://www.w3.org/TR/2001/REC-SVG-20010904/DTD/svg10.dtd">
<svg version="1.0" xmlns="http://www.w3.org/2000/svg"
 width="205.000000pt" height="205.000000pt" viewBox="0 0 205.000000 205.000000"
 preserveAspectRatio="xMidYMid meet">
<metadata>
Created by potrace 1.14, written by Peter Selinger 2001-2017
</metadata>
<g transform="translate(0.000000,205.000000) scale(0.100000,-0.100000)"
fill="#000000" stroke="none">
<path d="M1677 1724 c-16 -9 -36 -17 -45 -19 -9 -2 -36 -11 -60 -20 -24 -8
-48 -13 -53 -10 -7 5 -836 10 -939 6 -25 -1 -39 -13 -172 -135 l-67 -61 35
-79 c64 -144 80 -275 49 -391 -19 -73 -78 -194 -122 -252 -18 -24 -33 -48 -33
-54 0 -7 29 -45 65 -86 36 -41 65 -78 65 -83 0 -10 -66 -205 -74 -218 -3 -5 4
-19 16 -31 13 -15 23 -19 27 -12 4 6 41 20 82 31 41 11 90 25 110 31 36 11 38
10 110 -51 123 -103 317 -220 365 -220 19 0 140 61 204 104 88 58 233 180 333
280 101 100 205 214 220 242 6 10 -7 37 -38 84 -147 221 -165 405 -60 627 29
62 32 75 20 86 -11 12 -10 27 7 98 12 46 27 91 35 100 11 13 10 18 -5 32 -23
21 -39 21 -75 1z m-21 -106 c-3 -13 -6 -32 -6 -42 0 -17 -4 -16 -31 10 l-30
29 28 12 c40 17 46 16 39 -9z m-1126 -1210 c0 -4 -9 -8 -19 -8 -11 0 -23 -5
-26 -10 -4 -6 -10 -8 -15 -5 -5 3 -18 1 -29 -4 -18 -10 -18 -9 -5 35 7 24 16
49 20 55 6 11 74 -47 74 -63z"/>
</g>
</svg>
